<?xml version="1.0" encoding="UTF-8"?><svg id="a" xmlns="http://www.w3.org/2000/svg" viewBox="0 0 218.11 71.58"><defs><style>.b{fill:#205b9e;}.b,.c{fill-rule:evenodd;}</style></defs><g><path class="c" d="M13.19,15.12h22.43v22.44H13.19V15.12Zm-4.14-4.13h30.7v30.7H9.05V10.98Z"/><rect x="18.83" y="20.76" width="11.14" height="11.15"/><path class="c" d="M144.84,23.92h2.13l-1.05-9.2-1.08,9.2m-4.89,6.98l3.34-19.53h5.24l3.35,19.53h-4.04l-.43-3.43h-2.99l-.43,3.43h-4.04Zm-4.93-19.53v15.97h4.19v3.56h-8.12V11.38h3.93Zm-16.7,0h3.82v14.16c0,1.05,.07,1.7,.23,1.96,.16,.26,.45,.39,.88,.39s.73-.12,.89-.39c.16-.26,.24-.9,.24-1.93V11.38h3.81v15.42c0,1.65-.36,2.81-1.1,3.49-.74,.67-2.01,1.01-3.84,1.01s-3.08-.34-3.81-1.01c-.74-.68-1.12-1.84-1.12-3.49V11.38Zm-12.41,13.46h3.76c0,.1,0,.23-.01,.4v.36c0,.79,.09,1.34,.27,1.66,.18,.31,.51,.46,.95,.46s.78-.11,.95-.34c.19-.24,.3-.64,.3-1.21,0-.72-.11-1.29-.31-1.69-.19-.39-.65-.89-1.33-1.49-1-.85-1.72-1.47-2.16-1.87-.43-.41-.76-.74-1-1.01-.38-.41-.65-.74-.81-1-.17-.25-.3-.49-.38-.73-.11-.25-.17-.56-.21-.95-.03-.38-.05-.88-.05-1.51,0-1.76,.42-3.01,1.22-3.78,.85-.77,2.2-1.15,4.09-1.15,1.64,0,2.86,.41,3.6,1.22,.75,.8,1.12,2.1,1.12,3.91,0,.21-.03,.53-.03,.97-.02,.06-.02,.11-.02,.15h-3.82v-.63c0-.8-.08-1.34-.22-1.63-.15-.29-.44-.43-.87-.43s-.74,.12-.92,.36c-.19,.24-.28,.64-.28,1.22,0,.93,.48,1.78,1.46,2.59,.18,.15,.3,.25,.4,.34,.85,.73,1.54,1.35,2.1,1.85,.54,.51,.89,.87,1.05,1.08,.34,.47,.6,.87,.76,1.2,.18,.34,.3,.7,.42,1.08,.03,.11,.04,.33,.07,.65,0,.32,0,.76,0,1.3,0,1.91-.37,3.23-1.11,3.98-.74,.75-2.02,1.12-3.86,1.12s-3.15-.39-3.96-1.17c-.81-.78-1.2-2.05-1.2-3.82,0-.21,0-.56,.02-1.07,.01-.16,.01-.29,.03-.39m-7.73,6.06c-.73-2.7-1.41-5.37-2.06-8-.66-2.63-1.26-5.24-1.85-7.83l.11,15.83h-3.51V11.38h5.27c.78,2.96,1.51,5.76,2.14,8.41,.67,2.64,1.25,5.12,1.75,7.42l-.09-15.83h3.54V30.9h-5.31Zm-14.14-19.53h3.93V30.9h-3.93V11.38Zm-8.24,19.53c-.74-2.7-1.42-5.37-2.07-8-.65-2.63-1.25-5.24-1.84-7.83l.09,15.83h-3.5V11.38h5.28c.78,2.96,1.5,5.76,2.15,8.41,.66,2.64,1.24,5.12,1.74,7.42l-.09-15.83h3.55V30.9h-5.31Zm-10.07-19.53v3.55h-4.39v4h4.23v3.56h-4.23v4.86h4.39v3.56h-8.2V11.38h8.2Zm-16.53,3.45v5.74c.08,.01,.15,.02,.23,.03,.07,0,.17,0,.3,0,.57,0,.99-.13,1.24-.37,.24-.24,.37-.65,.37-1.22v-2.73c0-.52-.13-.89-.38-1.12-.25-.23-.67-.35-1.22-.35h-.32c-.07,0-.14,.02-.2,.02m-3.81,16.08V11.38h4.61c1.88,0,3.22,.31,4.02,.93,.79,.62,1.19,1.65,1.19,3.1v4.6c0,1.38-.37,2.4-1.07,3.05-.68,.65-1.77,.98-3.27,.98h-1.67v6.87h-3.81Z"/><path class="b" d="M201.74,11.38c2,0,3.39,.29,4.19,.87,.8,.58,1.22,1.56,1.22,2.96v11.77c0,1.45-.4,2.46-1.19,3.04-.81,.59-2.2,.89-4.22,.89h-4.69V11.38h4.69m-.87,3.5v12.49c.21,.02,.43,.02,.67,.04,.24,.02,.36,.03,.39,.03,.48,0,.82-.11,1.01-.33,.2-.21,.3-.56,.3-1.04v-9.89c0-.49-.1-.83-.32-1.02-.2-.19-.6-.3-1.18-.3-.22,0-.4,0-.52,.01-.13,0-.24,0-.35,.02m-11.95,16.03c-.73-2.7-1.41-5.37-2.06-8-.66-2.63-1.27-5.24-1.84-7.83l.11,15.83h-3.51V11.38h5.27c.78,2.96,1.5,5.76,2.15,8.41,.67,2.64,1.25,5.12,1.75,7.42l-.11-15.83h3.56V30.9h-5.31Zm-15.79-6.98h2.14l-1.05-9.2-1.09,9.2Zm-4.88,6.98l3.34-19.53h5.24l3.35,19.53h-4.02l-.45-3.43h-3l-.43,3.43h-4.03Zm-4.92-19.53v15.97h4.19v3.56h-8.12V11.38h3.93Z"/><path class="c" d="M203.29,39.27h1.21v.41c0,.39,.06,.67,.15,.81,.09,.14,.27,.22,.51,.22,.26,0,.45-.07,.59-.2,.13-.12,.19-.32,.19-.57,0-.19-.06-.35-.14-.49-.1-.14-.28-.31-.6-.54l-.6-.43c-.53-.37-.88-.67-1.02-.91-.14-.23-.21-.54-.21-.9,0-.54,.16-.97,.48-1.27,.32-.31,.76-.46,1.31-.46,.6,0,1.08,.17,1.39,.49,.31,.32,.47,.8,.47,1.41v.14s-.02,.06-.02,.09h-1.12v-.16c0-.36-.06-.6-.18-.76-.1-.15-.29-.23-.58-.23-.19,0-.33,.07-.44,.17-.11,.11-.16,.27-.16,.47,0,.27,.24,.57,.74,.9h.01l.66,.46c.47,.31,.79,.61,.95,.88,.18,.28,.27,.63,.27,1.06,0,.58-.17,1.04-.5,1.35-.34,.32-.82,.48-1.45,.48s-1.13-.17-1.43-.5c-.32-.34-.47-.85-.47-1.54v-.38m-5.22,2.26v-6.45h1.18v2.69l1.46-2.69h1.36l-1.64,2.68,1.73,3.77h-1.31l-1.16-2.66-.43,.71v1.95h-1.18Zm-5.61,0v-6.45h2.16c.63,0,1.11,.14,1.39,.4,.3,.26,.43,.69,.43,1.29,0,.42-.08,.75-.24,1-.14,.25-.38,.38-.67,.42,.57,.15,.85,.63,.89,1.44v.08l.03,.85c.02,.24,.05,.44,.11,.58,.04,.15,.12,.27,.23,.38h-1.44c-.03-.11-.06-.24-.07-.39-.02-.14-.03-.35-.03-.62l-.02-.67v-.17c0-.38-.07-.64-.23-.77-.15-.14-.47-.22-.96-.22h-.42v2.84h-1.15Zm1.15-3.72h.7c.33,0,.59-.07,.72-.21,.14-.14,.2-.39,.2-.75,0-.32-.07-.54-.22-.67-.16-.12-.42-.19-.8-.19h-.6v1.83Zm-6.98,3.72l1.44-6.45h1.62l1.46,6.45h-1.31l-.31-1.62h-1.39l-.31,1.62h-1.22Zm1.71-2.59h1.02l-.51-2.7-.51,2.7Zm-8.38,2.59v-6.45h1.81l.87,4.17,.89-4.17h1.81v6.45h-1.16l.03-5.71-1.21,5.71h-.73l-1.19-5.71,.03,5.71h-1.15Zm-5.71,0v-6.45h1.92c.4,0,.72,.03,.95,.1,.22,.06,.43,.17,.57,.33,.22,.22,.39,.5,.48,.83,.1,.34,.15,.86,.15,1.58,0,.91-.03,1.55-.1,1.94-.07,.37-.18,.69-.34,.96-.14,.27-.35,.45-.6,.56-.27,.1-.73,.15-1.39,.15h-1.64Zm1.17-.95h.54c.26,0,.44-.02,.56-.06,.11-.04,.2-.1,.25-.2,.14-.17,.2-.4,.25-.69,.05-.3,.06-.76,.06-1.39s-.03-1.09-.08-1.37c-.07-.29-.14-.5-.29-.65-.07-.07-.15-.12-.27-.15-.11-.04-.28-.05-.5-.05h-.52v4.56Zm-6.95,.95v-6.45h1.24l1.67,4.51-.03-4.51h1.13v6.45h-1.22l-1.68-4.51,.03,4.51h-1.13Zm-5.83,0l1.46-6.45h1.6l1.46,6.45h-1.28l-.33-1.62h-1.37l-.32,1.62h-1.22Zm1.73-2.59h1.01l-.5-2.7-.51,2.7Zm-6.11,2.59v-6.45h1.21v5.34h2.17v1.1h-3.37Zm-9.12,0v-6.45h1.2v5.34h2.17v1.1h-3.37Zm-5.85,0l1.47-6.45h1.61l1.46,6.45h-1.29l-.32-1.62h-1.37l-.32,1.62h-1.24Zm1.74-2.59h1.02l-.52-2.7-.5,2.7Zm-7.02,2.59v-6.45h1.22l1.69,4.51-.03-4.51h1.13v6.45h-1.23l-1.68-4.51,.03,4.51h-1.12Zm-5.83-3.22c0-.68,.03-1.23,.09-1.64,.07-.4,.17-.71,.3-.92,.2-.29,.42-.5,.68-.63,.26-.12,.6-.19,1.01-.19,.43,0,.79,.07,1.04,.19,.25,.12,.47,.33,.66,.63,.15,.21,.24,.52,.31,.93,.07,.41,.1,.95,.1,1.63s-.03,1.22-.1,1.63c-.07,.41-.16,.72-.31,.94-.19,.28-.41,.49-.66,.62-.25,.13-.61,.19-1.04,.19-.41,0-.75-.07-1.01-.19-.26-.12-.48-.34-.68-.62-.13-.21-.23-.52-.3-.93-.06-.41-.09-.95-.09-1.64m1.23,0c0,1.07,.06,1.73,.19,2,.13,.28,.35,.41,.69,.41s.55-.13,.67-.4c.12-.27,.17-.94,.17-2.01s-.06-1.74-.17-2.02c-.12-.27-.35-.41-.7-.41-.31,0-.55,.14-.66,.41-.13,.28-.19,.94-.19,2.02m-2.87,3.22h-1.19v-6.45h1.19v6.45Zm-5.07,0v-5.39h-1.39v-1.06h3.97v1.06h-1.37v5.39h-1.22Zm-6.28,0l1.46-6.45h1.6l1.47,6.45h-1.28l-.33-1.62h-1.38l-.32,1.62h-1.22Zm1.73-2.59h1.02l-.5-2.7-.52,2.7Zm-7.03,2.59v-6.45h1.23l1.69,4.51-.03-4.51h1.12v6.45h-1.22l-1.68-4.51,.03,4.51h-1.14Zm-5.62,0v-6.45h2.15c.66,0,1.12,.14,1.41,.4,.28,.26,.43,.69,.43,1.29,0,.42-.09,.75-.23,1-.16,.25-.39,.38-.68,.42,.57,.15,.87,.63,.89,1.44v.08l.04,.85c0,.24,.05,.44,.09,.58,.05,.15,.11,.27,.24,.38h-1.43c-.04-.11-.05-.24-.08-.39-.02-.14-.02-.35-.02-.62l-.03-.67v-.17c0-.38-.08-.64-.24-.77-.15-.14-.49-.22-.97-.22h-.41v2.84h-1.15Zm1.15-3.72h.7c.36,0,.6-.07,.74-.21,.13-.14,.19-.39,.19-.75,0-.32-.07-.54-.23-.67-.13-.12-.41-.19-.81-.19h-.59v1.83Zm-6.05,3.72v-6.45h3.3v1.07h-2.11v1.5h1.96v1.02h-1.96v1.77h2.16v1.09h-3.35Zm-3.89,0v-5.39h-1.37v-1.06h3.96v1.06h-1.37v5.39h-1.21Zm-6.7,0v-6.45h1.23l1.68,4.51-.02-4.51h1.12v6.45h-1.21l-1.7-4.51,.04,4.51h-1.14Zm-1.75,0h-1.21v-6.45h1.21v6.45Zm-8.03,0l-.08-.71c-.13,.31-.28,.53-.51,.67-.21,.14-.51,.2-.89,.2-.67,0-1.14-.26-1.42-.77-.27-.51-.41-1.45-.41-2.81,0-.63,.03-1.14,.09-1.53,.06-.39,.17-.67,.32-.89,.15-.26,.38-.44,.65-.57,.28-.12,.62-.18,1.04-.18,.69,0,1.2,.16,1.54,.49,.32,.32,.48,.83,.48,1.53v.16h-1.11v-.07c0-.38-.09-.67-.22-.88-.14-.19-.35-.29-.65-.29-.34,0-.59,.14-.71,.4-.13,.27-.19,.97-.19,2.13,0,.91,.05,1.52,.18,1.82,.13,.31,.35,.46,.66,.46s.54-.11,.68-.33c.13-.22,.21-.59,.21-1.1v-.23h-.84v-1.03h1.99v3.52h-.81Zm-8.95,0v-6.45h1.22l1.69,4.51-.03-4.51h1.13v6.45h-1.23l-1.68-4.51,.04,4.51h-1.14Zm-1.76,0h-1.2v-6.45h1.2v6.45Zm-5.07,0v-5.39h-1.4v-1.06h3.97v1.06h-1.39v5.39h-1.18Zm-6.29,0l1.45-6.45h1.62l1.46,6.45h-1.3l-.32-1.62h-1.38l-.31,1.62h-1.22Zm1.72-2.59h1.03l-.52-2.7-.51,2.7Zm-6.16,2.59v-6.45h3.31v1.07h-2.12v1.5h1.98v1.02h-1.98v1.77h2.17v1.09h-3.37Zm-5.6,0v-6.45h2.15c.65,0,1.1,.14,1.39,.4,.29,.26,.43,.69,.43,1.29,0,.42-.08,.75-.22,1-.16,.25-.38,.38-.68,.42,.57,.15,.87,.63,.88,1.44v.08l.04,.85c.01,.24,.04,.44,.1,.58,.04,.15,.12,.27,.23,.38h-1.43c-.03-.11-.05-.24-.08-.39-.02-.14-.02-.35-.04-.62v-.85c0-.38-.09-.64-.26-.77-.15-.14-.46-.22-.96-.22h-.4v2.84h-1.16Zm1.16-3.72h.69c.35,0,.59-.07,.73-.21,.13-.14,.21-.39,.21-.75,0-.32-.07-.54-.23-.67-.14-.12-.41-.19-.79-.19h-.59v1.83Zm-3.95,1.42h1.15v.26c0,.75-.15,1.3-.46,1.66-.31,.36-.79,.55-1.44,.55-.29,0-.57-.04-.79-.12-.22-.08-.4-.2-.56-.37-.23-.22-.39-.53-.46-.92-.11-.39-.15-1.07-.15-2.04,0-.67,.03-1.2,.08-1.59,.05-.39,.14-.68,.25-.87,.16-.3,.39-.51,.66-.65,.23-.13,.57-.2,.97-.2,.65,0,1.13,.17,1.43,.51,.29,.34,.44,.89,.44,1.64h-1.16v-.16c0-.35-.07-.61-.18-.78-.11-.16-.29-.26-.5-.26-.29,0-.48,.13-.59,.36-.11,.24-.16,.9-.16,1.97,0,1.17,.05,1.87,.14,2.12,.12,.26,.3,.39,.58,.39s.47-.1,.56-.3c.11-.2,.18-.56,.18-1.09v-.1Z"/></g><g><g><path d="M48.7,58.29h-2.21v-6.16h2.12c1.25,0,1.88,.71,1.88,1.56,0,.78-.47,1.23-1.04,1.42,.64,.12,1.17,.76,1.17,1.52,0,.93-.7,1.65-1.93,1.65Zm-.15-5.5h-1.28v2h1.3c.72,0,1.14-.37,1.14-1s-.4-1-1.15-1Zm.06,2.66h-1.34v2.17h1.37c.76,0,1.22-.4,1.22-1.07s-.49-1.1-1.25-1.1Z"/><path d="M57.79,53.45h.8l-2.8,7.12h-.8l.92-2.33-1.88-4.79h.86l1.46,3.92,1.44-3.92Z"/><path d="M70.89,56.92h-2.58l-.48,1.37h-.81l2.14-6.12h.89l2.13,6.12h-.81l-.47-1.37Zm-1.29-3.76l-1.07,3.11h2.14l-1.07-3.11Z"/><path d="M77.64,58.37c-1.09,0-1.85-.62-1.9-1.5h.8c.04,.47,.44,.82,1.09,.82,.61,0,.95-.32,.95-.72,0-1.08-2.75-.45-2.75-2.25,0-.74,.67-1.35,1.71-1.35s1.71,.57,1.76,1.52h-.77c-.03-.49-.39-.84-1.01-.84-.57,0-.91,.28-.91,.67,0,1.15,2.7,.52,2.73,2.25,0,.8-.67,1.4-1.7,1.4Z"/><path d="M83.31,51.75h.77v2.39c.31-.51,.88-.79,1.54-.79,1.03,0,1.86,.69,1.86,2.08v2.85h-.76v-2.74c0-.99-.52-1.49-1.3-1.49s-1.33,.51-1.33,1.56v2.68h-.77v-6.54Z"/><path d="M93.65,58.37c-1.32,0-2.32-.97-2.32-2.51s1.04-2.49,2.35-2.49,2.35,.96,2.35,2.49-1.06,2.51-2.38,2.51Zm0-.71c.81,0,1.6-.57,1.6-1.8s-.77-1.79-1.57-1.79-1.55,.57-1.55,1.79,.72,1.8,1.53,1.8Z"/><path d="M99.94,51.75h.77v3.84l1.79-2.15h1.08l-2.19,2.41,2.2,2.43h-1.05l-1.82-2.14v2.14h-.77v-6.54Z"/><path d="M114.25,55.72h-1.14v2.57h-.77v-6.16h1.91c1.39,0,2.04,.8,2.04,1.8,0,.94-.58,1.79-2.04,1.79Zm0-.66c.88,0,1.26-.43,1.26-1.12s-.37-1.14-1.26-1.14h-1.14v2.26h1.14Z"/><path d="M120.02,52.12c0-.31,.23-.55,.53-.55,.28,0,.51,.24,.51,.55s-.23,.55-.51,.55c-.3,0-.53-.24-.53-.55Zm.13,1.33h.77v4.84h-.77v-4.84Z"/><path d="M125.89,58.29h-.77v-4.84h.77v.79c.26-.54,.76-.87,1.5-.87v.83h-.2c-.74,0-1.3,.34-1.3,1.47v2.63Z"/><path d="M133.08,53.37c.87,0,1.46,.46,1.73,.96v-.88h.78v4.84h-.78v-.9c-.28,.52-.88,.98-1.74,.98-1.24,0-2.2-1.02-2.2-2.52s.96-2.48,2.21-2.48Zm.15,.7c-.85,0-1.57,.65-1.57,1.78s.72,1.81,1.57,1.81,1.58-.66,1.58-1.8-.73-1.79-1.58-1.79Z"/><path d="M146.5,55.55c0-.99-.51-1.49-1.27-1.49s-1.32,.52-1.32,1.56v2.67h-.76v-2.74c0-.99-.51-1.49-1.27-1.49s-1.32,.52-1.32,1.56v2.67h-.77v-4.84h.77v.7c.31-.51,.86-.79,1.47-.79,.76,0,1.4,.35,1.71,1.08,.27-.7,.93-1.08,1.65-1.08,1.06,0,1.88,.69,1.88,2.08v2.85h-.76v-2.74Z"/><path d="M153.33,53.37c.87,0,1.46,.46,1.73,.96v-.88h.78v4.84h-.78v-.9c-.28,.52-.88,.98-1.74,.98-1.24,0-2.2-1.02-2.2-2.52s.96-2.48,2.21-2.48Zm.15,.7c-.85,0-1.57,.65-1.57,1.78s.72,1.81,1.57,1.81,1.58-.66,1.58-1.8-.73-1.79-1.58-1.79Z"/><path d="M160.03,51.75h.77v6.54h-.77v-6.54Z"/><path d="M175.56,53.92h-.92c-.32-.72-.97-1.13-1.8-1.13-1.25,0-2.18,.94-2.18,2.42s.93,2.41,2.18,2.41c1.16,0,1.96-.78,2.08-2h-2.36v-.65h3.18v.62c-.14,1.53-1.3,2.76-2.9,2.76s-2.97-1.29-2.97-3.14,1.31-3.15,2.97-3.15c1.25,0,2.28,.67,2.72,1.86Z"/><path d="M180.41,58.29h-.77v-4.84h.77v.79c.26-.54,.76-.87,1.5-.87v.83h-.2c-.74,0-1.3,.34-1.3,1.47v2.63Z"/><path d="M187.72,58.37c-1.32,0-2.32-.97-2.32-2.51s1.04-2.49,2.35-2.49,2.35,.96,2.35,2.49-1.06,2.51-2.38,2.51Zm0-.71c.81,0,1.6-.57,1.6-1.8s-.77-1.79-1.57-1.79-1.55,.57-1.55,1.79,.72,1.8,1.53,1.8Z"/><path d="M198.13,58.29h-.77v-.72c-.3,.5-.87,.79-1.48,.79-1.07,0-1.91-.69-1.91-2.08v-2.84h.76v2.73c0,.98,.52,1.48,1.3,1.48s1.33-.51,1.33-1.56v-2.66h.77v4.84Z"/><path d="M204.83,53.37c1.25,0,2.21,.97,2.21,2.48s-.96,2.52-2.21,2.52c-.85,0-1.45-.48-1.74-.97v3.19h-.77v-7.14h.77v.89c.28-.51,.89-.97,1.74-.97Zm-.16,.7c-.84,0-1.58,.67-1.58,1.79s.74,1.8,1.58,1.8,1.58-.67,1.58-1.81-.72-1.78-1.58-1.78Z"/></g><rect x="44.66" y="47.32" width="164.4" height=".49"/></g></svg>